PathFileType	4	(X/Y/Z)	HSS_walk2.trc
DataRate	CameraRate	NumFrames	NumMarkers	Units	OrigDataRate	OrigDataStartFrame	OrigNumFrames
120.0	120.0	5	44	mm	120.0	1	984
Frame#	Time		R.Shoulder		Offset		L.Shoulder		R.Elbow		R.Wrist.Radial		R.Wrist		R.Hand		L.Elbow		L.Wrist.Radial		L.Wrist		L.Hand		R.Hip		V.Sacral		L.PSIS		L.Hip		R.Thigh.Upper		R.Thigh.Front		R.Thigh.Rear		X.Shell.Lower.Thigh.Right		R.Knee.Lateral		R.Shank.Upper		R.Shank.Front		R.Shank.Rear		X.Shell.Lower.Shank.Right		R.Ankle.Lateral		R.Heel		R.Toe		L.Thigh.Upper		L.Thigh.Front		L.Thigh.Rear		X.Shell.Lower.Thigh.Left		L.Knee.Lateral		L.Shank.Upper		L.Shank.Front		L.Shank.Rear		X.Shell.Lower.Shank.Left		L.Ankle.Lateral		L.Heel		L.Toe		R.Troc		L.Troc		R.PSIS		L.ASIS		R.ASIS
			X1	Y1	Z1	X2	Y2	Z2	X3	Y3	Z3	X4	Y4	Z4	X5	Y5	Z5	X6	Y6	Z6	X7	Y7	Z7	X8	Y8	Z8	X9	Y9	Z9	X10	Y10	Z10	X11	Y11	Z11	X12	Y12	Z12	X13	Y13	Z13	X14	Y14	Z14	X15	Y15	Z15	X16	Y16	Z16	X17	Y17	Z17	X18	Y18	Z18	X19	Y19	Z19	X20	Y20	Z20	X21	Y21	Z21	X22	Y22	Z22	X23	Y23	Z23	X24	Y24	Z24	X25	Y25	Z25	X26	Y26	Z26	X27	Y27	Z27	X28	Y28	Z28	X29	Y29	Z29	X30	Y30	Z30	X31	Y31	Z31	X32	Y32	Z32	X33	Y33	Z33	X34	Y34	Z34	X35	Y35	Z35	X36	Y36	Z36	X37	Y37	Z37	X38	Y38	Z38	X39	Y39	Z39	X40	Y40	Z40	X41	Y41	Z41	X42	Y42	Z42	X43	Y43	Z43	X44	Y44	Z44

1	0.00000	-1747.94348	1482.93738	-40.57881	-1822.72034	1367.71484	-299.41061	-1745.50085	1492.56689	-389.62900	-1749.81531	1118.50281	9.54661	-1594.40637	912.64642	35.05439	-1645.05212	903.23956	89.99590	-1591.42188	836.83893	99.38940	-1742.96021	1129.31055	-450.73593	-1618.12366	928.38562	-508.76996	-1580.88818	927.03400	-444.88623	-1567.14893	858.19403	-501.05328	-1661.11328	1040.13672	-67.42464	-1781.25159	1021.70245	-214.75008	-1780.83057	1028.64331	-255.22086	-1658.73657	1039.33325	-361.79514	-1621.30310	694.45258	-33.65528	-1588.75195	657.42395	-51.26124	-1644.66052	656.15332	-25.33204	-1618.01880	623.46362	-44.18847	-1681.99133	516.67822	-58.06851	-1696.37952	367.36237	-12.78316	-1670.33008	323.95880	-38.31739	-1729.05408	331.42053	-24.10972	-1706.99023	291.21521	-34.72058	-1721.12415	68.94942	-86.76293	-1764.08740	31.67163	-135.76372	-1566.82825	32.33023	-84.66134	-1613.72888	693.84698	-385.67609	-1594.84558	644.72113	-361.95474	-1643.58032	658.15796	-399.58377	-1618.72644	623.17462	-386.45728	-1688.20715	508.00568	-365.17300	-1725.84509	306.57721	-404.17789	-1698.60828	282.74347	-387.44028	-1757.23987	268.63327	-389.86374	-1734.99329	237.19147	-391.65802	-1723.88257	71.95114	-345.11221	-1777.89514	33.40875	-296.77908	-1580.21545	32.35543	-340.43997	-1650.70642	881.10657	-30.46677	-1654.23999	892.59882	-397.87332	-1781.47852	1027.95728	-170.44911	-1596.44409	1001.25311	-321.13214	-1601.62427	1002.09167	-99.23920
2	0.00833	-1747.75598	1483.05554	-40.41108	-1822.83740	1367.77551	-299.63257	-1745.37280	1492.48511	-389.77023	-1747.37708	1118.86511	8.94514	-1593.95386	911.72992	34.52610	-1644.18164	903.17847	89.86447	-1591.65442	835.60858	98.75513	-1740.69678	1129.35083	-449.71414	-1616.83911	928.24762	-508.48132	-1579.74854	926.46600	-444.58911	-1566.60339	857.29602	-500.51926	-1661.14832	1040.09741	-67.29338	-1781.32471	1021.59869	-214.67598	-1780.87317	1028.48083	-255.17912	-1658.74146	1039.22156	-361.64337	-1621.27295	694.48114	-33.55809	-1588.70447	657.43292	-51.14357	-1644.66187	656.17975	-25.23181	-1617.99329	623.46759	-44.13139	-1681.99487	516.66937	-58.03287	-1696.39465	367.34085	-12.80090	-1670.32239	323.94586	-38.30522	-1729.07190	331.41092	-24.04821	-1707.01819	291.23575	-34.69818	-1721.14478	68.95813	-86.79209	-1764.07385	31.67669	-135.75046	-1566.82312	32.34741	-84.66773	-1613.74109	693.86646	-385.49304	-1594.87622	644.70514	-361.91617	-1643.61584	658.21844	-399.54379	-1618.73950	623.19891	-386.34015	-1688.22205	508.04825	-365.12289	-1725.92114	306.61615	-404.10559	-1698.65186	282.76581	-387.35675	-1757.30334	268.64960	-389.80511	-1735.06152	237.21957	-391.63370	-1723.89697	71.94521	-345.08240	-1777.89551	33.39672	-296.79358	-1580.21680	32.35322	-340.44876	-1650.75806	881.11420	-30.37005	nan	nan	nan	-1781.51990	1027.85364	-170.39723	-1596.44922	1001.25867	-321.02203	-1601.45532	1002.20044	-99.12870
3	0.01667	-1747.48743	1483.13782	-40.32001	-1822.97632	1367.84888	-299.93594	-1745.21948	1492.43958	-389.94891	-1745.01465	1119.16394	8.57995	-1593.58118	911.09869	34.03841	-1642.95300	903.53723	89.97148	-1591.45764	834.59857	97.86173	-1738.60059	1129.32092	-449.07968	-1615.21509	928.26471	-508.30771	-1578.45654	925.92072	-444.39185	-1565.84094	856.47528	-499.60089	-1661.20081	1040.09631	-67.20014	-1781.43835	1021.46191	-214.58058	-1780.93835	1028.34814	-255.08386	-1658.90002	1039.14771	-361.49564	-1621.26892	694.49603	-33.49719	-1588.67261	657.44971	-50.99579	-1644.64453	656.16852	-25.19909	-1617.97351	623.47168	-44.07601	-1681.96814	516.65460	-58.02082	-1696.40881	367.33838	-12.76169	-1670.34363	323.95993	-38.28804	-1729.09705	331.40756	-24.07837	-1707.02783	291.21265	-34.67984	-1721.12183	68.93256	-86.81212	-1764.07104	31.70375	-135.76935	-1566.82141	32.33073	-84.68964	-1613.77490	693.93121	-385.40921	-1594.87134	644.75702	-361.90857	-1643.64465	658.24469	-399.43982	-1618.78162	623.22583	-386.29266	-1688.26038	508.06073	-365.05319	-1725.94666	306.61615	-404.09030	-1698.83508	283.02979	-387.08566	-1757.35449	268.68869	-389.75302	-1735.10974	237.21735	-391.59109	-1723.90833	71.91415	-345.07050	-1777.89172	33.39708	-296.79654	-1580.22229	32.36766	-340.46063	-1650.79260	881.12256	-30.28148	nan	nan	nan	-1781.56946	1027.77197	-170.35455	-1596.50745	1001.21851	-320.85266	-1601.83362	1002.24158	-99.07339
4	0.02500	-1747.22681	1483.19971	-40.18628	-1823.17725	1367.91492	-300.18051	-1745.01477	1492.41003	-390.06302	-1742.89453	1119.50244	8.65597	-1592.99707	910.62170	33.36156	-1641.38037	903.79688	90.24372	-1590.81458	833.76947	96.48003	-1736.68640	1129.44507	-448.95117	-1613.39478	928.48486	-508.25928	-1577.25891	925.73804	-444.08136	-1564.85498	855.97876	-498.95502	-1661.26721	1040.11218	-67.11887	-1781.54260	1021.31525	-214.44957	-1781.01880	1028.22400	-254.98763	-1658.91626	1039.10986	-361.36856	-1621.23315	694.49518	-33.48896	-1588.63098	657.36340	-50.99728	-1644.68518	656.08569	-24.91307	-1617.95239	623.47040	-44.07064	-1682.04553	516.65881	-57.80307	-1696.43713	367.33621	-12.73951	-1670.34717	323.95898	-38.26747	-1729.11450	331.39554	-24.08458	-1707.05127	291.19580	-34.65276	-1721.14551	68.95723	-86.81373	-1764.07654	31.69269	-135.78143	-1566.80762	32.32144	-84.64154	-1613.80359	693.95154	-385.27194	-1594.87878	644.74554	-361.87509	-1643.66187	658.25000	-399.36166	-1618.78992	623.28204	-386.18564	-1688.27087	508.08035	-365.00839	-1725.99622	306.62131	-404.05740	-1698.86890	283.01419	-387.02344	-1757.39172	268.70438	-389.69247	-1735.15808	237.24837	-391.57770	-1723.95251	71.96980	-345.08170	-1777.86060	33.38589	-296.78851	-1580.21033	32.30857	-340.41156	-1650.81201	881.11865	-30.22688	nan	nan	nan	-1781.68494	1027.68640	-170.25076	-1596.51770	1001.22211	-320.84564	-1601.89148	1002.25049	-98.93999
5	0.03333	-1746.88171	1483.28699	-39.99581	-1823.32617	1367.99963	-300.46329	-1744.80115	1492.35583	-390.17160	-1740.93811	1119.85742	8.82203	-1592.31384	910.41931	32.71967	-1639.54993	904.21564	90.64198	-1589.93115	833.13708	95.47069	-1734.85754	1129.58911	-449.06970	-1611.32190	928.83734	-508.25229	-1576.13916	925.68921	-443.73141	-1563.54016	855.60162	-497.88895	-1661.13501	1040.13489	-67.04199	-1781.63342	1021.21204	-214.27734	-1781.08130	1028.08923	-254.87753	-1658.91919	1039.05212	-361.28461	-1621.24353	694.49316	-33.32092	-1588.59326	657.43378	-50.82976	-1644.64526	656.17615	-25.13079	-1617.93799	623.47968	-43.99634	-1682.02051	516.61316	-57.82106	-1696.44604	367.33011	-12.72764	-1670.34961	323.92856	-38.23275	-1729.15796	331.41223	-24.00283	-1707.02747	291.19589	-34.66151	-1721.12708	68.94907	-86.82890	-1764.07275	31.69255	-135.81044	-1566.81482	32.32563	-84.64895	-1613.78333	693.99054	-385.20154	-1594.87671	644.75195	-361.81311	-1643.67151	658.27313	-399.27817	-1618.78845	623.26880	-386.10626	-1688.24731	508.07037	-364.96661	-1726.00452	306.64737	-404.04904	-1698.87720	283.04593	-387.04141	-1757.41931	268.73569	-389.67899	-1735.20837	237.27614	-391.55249	-1723.97864	71.92982	-345.04480	-1777.84558	33.39681	-296.75742	-1580.22278	32.33990	-340.43967	-1650.84106	881.12341	-30.14450	-1654.15833	892.54498	-397.38876	-1781.78699	1027.59766	-170.13013	-1596.51465	1001.18115	-320.58960	-1602.47400	1002.23529	-98.80899
